<svg xmlns="http://www.w3.org/2000/svg" width="612" height="141" viewBox="0 0 612 141" fill="none">
<path d="M198.499 53C199.766 53 200.833 53.2667 201.699 53.8C202.566 54.3 203.416 55.3 204.249 56.8L220.799 86.85C220.966 87.1833 220.999 87.4667 220.899 87.7C220.833 87.9 220.599 88 220.199 88H213.849C213.283 88 212.899 87.7833 212.699 87.35L209.149 80.9H185.649L182.199 87.35C181.966 87.7833 181.583 88 181.049 88H174.549C174.116 88 173.849 87.9 173.749 87.7C173.683 87.4667 173.733 87.1833 173.899 86.85L190.299 56.8C191.133 55.3 191.949 54.3 192.749 53.8C193.549 53.2667 194.483 53 195.549 53H198.499ZM188.799 75.1H205.999L198.049 60.45C197.916 60.2167 197.733 60.1 197.499 60.1H197.199C196.966 60.1 196.783 60.2167 196.649 60.45L188.799 75.1Z" fill="#2D374B"/>
<path d="M268.38 53C272.213 53 274.963 53.8667 276.63 55.6C278.296 57.3333 279.13 59.9 279.13 63.3V66.15C279.13 69.0167 278.546 71.2833 277.38 72.95C276.213 74.6167 274.313 75.6833 271.68 76.15L280.23 86.75C280.396 86.9167 280.446 87.1667 280.38 87.5C280.313 87.8333 280.046 88 279.58 88H273.13C272.696 88 272.396 87.95 272.23 87.85C272.063 87.75 271.896 87.5833 271.73 87.35L263.83 76.95H247.68V86.9C247.68 87.6333 247.313 88 246.58 88H241.18C240.413 88 240.03 87.6333 240.03 86.9V54.5C240.03 53.5 240.53 53 241.53 53H268.38ZM247.68 70.85H266.83C268.53 70.85 269.73 70.4833 270.43 69.75C271.13 69.0167 271.48 67.9 271.48 66.4V64.3C271.48 62.8 271.13 61.6833 270.43 60.95C269.73 60.2167 268.53 59.85 266.83 59.85H248.33C247.896 59.85 247.68 60.05 247.68 60.45V70.85Z" fill="#2D374B"/>
<path d="M330.593 53C334.027 53 336.46 53.6833 337.893 55.05C339.36 56.4167 340.093 58.4833 340.093 61.25V63.65C340.093 66.45 339.027 68.5667 336.893 70C339.193 71.3333 340.343 73.4833 340.343 76.45V79.35C340.343 80.6833 340.193 81.8833 339.893 82.95C339.593 84.0167 339.093 84.9333 338.393 85.7C337.727 86.4333 336.827 87 335.693 87.4C334.56 87.8 333.16 88 331.493 88H301.793C300.793 88 300.293 87.5 300.293 86.5V54.5C300.293 53.5 300.793 53 301.793 53H330.593ZM307.943 73V80.45C307.943 80.8833 308.16 81.1 308.593 81.1H329.093C330.427 81.1 331.377 80.8667 331.943 80.4C332.51 79.9 332.793 79.1167 332.793 78.05V76.15C332.793 75.1167 332.477 74.3333 331.843 73.8C331.243 73.2667 330.11 73 328.443 73H307.943ZM307.943 67.55H328.443C330.11 67.55 331.243 67.3 331.843 66.8C332.443 66.3 332.743 65.5667 332.743 64.6V62.9C332.743 61.8667 332.443 61.1167 331.843 60.65C331.277 60.15 330.343 59.9 329.043 59.9H308.593C308.16 59.9 307.943 60.1167 307.943 60.55V67.55Z" fill="#2D374B"/>
<path d="M367.791 53C368.524 53 368.891 53.3667 368.891 54.1V86.9C368.891 87.6333 368.524 88 367.791 88H362.391C361.624 88 361.241 87.6333 361.241 86.9V54.1C361.241 53.3667 361.624 53 362.391 53H367.791Z" fill="#2D374B"/>
<path d="M425.297 53C426.031 53 426.397 53.3667 426.397 54.1V58.85C426.397 59.5833 426.031 59.95 425.297 59.95H400.247C399.281 59.95 398.597 60.2 398.197 60.7C397.797 61.2 397.597 61.8833 397.597 62.75V64.45C397.597 66.3167 398.464 67.25 400.197 67.25H418.947C421.847 67.25 424.031 68 425.497 69.5C426.964 70.9667 427.697 73.0833 427.697 75.85V79.85C427.697 82.2833 426.981 84.25 425.547 85.75C424.114 87.25 421.881 88 418.847 88H391.147C390.381 88 389.997 87.6333 389.997 86.9V82.15C389.997 81.4167 390.381 81.05 391.147 81.05H417.397C418.364 81.05 419.047 80.8 419.447 80.3C419.847 79.8 420.047 79.1167 420.047 78.25V76.2C420.047 74.3333 419.181 73.4 417.447 73.4H398.697C395.797 73.4 393.614 72.6667 392.147 71.2C390.681 69.7 389.947 67.5667 389.947 64.8V61.15C389.947 58.7167 390.664 56.75 392.097 55.25C393.531 53.75 395.764 53 398.797 53H425.297Z" fill="#2D374B"/>
<path d="M484.568 53C485.302 53 485.668 53.3667 485.668 54.1V59C485.668 59.7667 485.302 60.15 484.568 60.15H462.318C461.018 60.15 459.935 60.2667 459.068 60.5C458.235 60.7 457.568 61.0667 457.068 61.6C456.568 62.1 456.202 62.7833 455.968 63.65C455.768 64.5167 455.668 65.6167 455.668 66.95V74.05C455.668 75.3833 455.768 76.5 455.968 77.4C456.202 78.2667 456.568 78.9667 457.068 79.5C457.568 80 458.235 80.3667 459.068 80.6C459.935 80.8 461.018 80.9 462.318 80.9H484.568C485.302 80.9 485.668 81.2667 485.668 82V86.9C485.668 87.6333 485.302 88 484.568 88H462.018C459.485 88 457.335 87.7667 455.568 87.3C453.802 86.8333 452.352 86.0833 451.218 85.05C450.118 83.9833 449.302 82.6167 448.768 80.95C448.268 79.25 448.018 77.2 448.018 74.8V66.2C448.018 63.8 448.268 61.7667 448.768 60.1C449.302 58.4333 450.118 57.0833 451.218 56.05C452.352 54.9833 453.802 54.2167 455.568 53.75C457.335 53.25 459.485 53 462.018 53H484.568Z" fill="#2D374B"/>
<path d="M528.197 53C529.463 53 530.53 53.2667 531.397 53.8C532.263 54.3 533.113 55.3 533.947 56.8L550.497 86.85C550.663 87.1833 550.697 87.4667 550.597 87.7C550.53 87.9 550.297 88 549.897 88H543.547C542.98 88 542.597 87.7833 542.397 87.35L538.847 80.9H515.347L511.897 87.35C511.663 87.7833 511.28 88 510.747 88H504.247C503.813 88 503.547 87.9 503.447 87.7C503.38 87.4667 503.43 87.1833 503.597 86.85L519.997 56.8C520.83 55.3 521.647 54.3 522.447 53.8C523.247 53.2667 524.18 53 525.247 53H528.197ZM518.497 75.1H535.697L527.747 60.45C527.613 60.2167 527.43 60.1 527.197 60.1H526.897C526.663 60.1 526.48 60.2167 526.347 60.45L518.497 75.1Z" fill="#2D374B"/>
<path d="M578.627 53C579.427 53 580.094 53.0333 580.627 53.1C581.16 53.1667 581.627 53.3167 582.027 53.55C582.427 53.75 582.81 54.05 583.177 54.45C583.544 54.8167 583.96 55.3167 584.427 55.95L603.027 80.35C603.16 80.5833 603.377 80.7 603.677 80.7H604.127C604.394 80.7 604.527 80.5333 604.527 80.2V54.1C604.527 53.3667 604.894 53 605.627 53H610.877C611.61 53 611.977 53.3667 611.977 54.1V82.8C611.977 84.8333 611.61 86.2167 610.877 86.95C610.144 87.65 609.01 88 607.477 88H603.177C602.41 88 601.76 87.9667 601.227 87.9C600.727 87.8333 600.277 87.7 599.877 87.5C599.477 87.3 599.077 87.0167 598.677 86.65C598.31 86.25 597.877 85.7167 597.377 85.05L578.727 60.65C578.527 60.4167 578.31 60.3 578.077 60.3H577.627C577.36 60.3 577.227 60.4667 577.227 60.8V86.9C577.227 87.6333 576.86 88 576.127 88H570.877C570.11 88 569.727 87.6333 569.727 86.9V58.2C569.727 56.1667 570.094 54.8 570.827 54.1C571.56 53.3667 572.694 53 574.227 53H578.627Z" fill="#2D374B"/>
<g clip-path="url(#clip0_4054_1849)">
<path d="M4.74609 42.8612V98.1388C4.74609 101.668 6.63267 104.931 9.68822 106.69L57.5702 134.335C60.6257 136.094 64.3873 136.094 67.4429 134.335L115.325 106.69C118.38 104.931 120.267 101.668 120.267 98.1388V42.8612C120.267 39.3319 118.38 36.0687 115.325 34.3098L67.4429 6.66525C64.3873 4.90636 60.6257 4.90636 57.5702 6.66525L9.67665 34.3098C6.62109 36.0687 4.74609 39.3319 4.74609 42.8612Z" fill="#213147"/>
<path d="M72.952 81.2211L66.1233 99.9439C65.9381 100.465 65.9381 101.032 66.1233 101.552L77.8709 133.768L91.4589 125.922L75.151 81.2211C74.7807 80.1912 73.3223 80.1912 72.952 81.2211Z" fill="#12AAFF"/>
<path d="M86.6432 49.7347C86.2729 48.7049 84.8145 48.7049 84.4442 49.7347L77.6155 68.4576C77.4303 68.9783 77.4303 69.5453 77.6155 70.0661L96.8631 122.809L110.451 114.964L86.6432 49.7347Z" fill="#12AAFF"/>
<path d="M62.5 8.73656C62.8356 8.73656 63.1713 8.82913 63.4722 8.99114L115.289 38.9037C115.891 39.2509 116.262 39.8989 116.262 40.5816V100.395C116.262 101.09 115.891 101.726 115.289 102.073L63.4722 131.986C63.1829 132.159 62.8356 132.24 62.5 132.24C62.1644 132.24 61.8287 132.148 61.5278 131.986L9.71065 102.096C9.1088 101.749 8.73843 101.101 8.73843 100.418V40.5932C8.73843 39.8989 9.1088 39.2625 9.71065 38.9153L61.5278 9.00271C61.8287 8.82913 62.1644 8.73656 62.5 8.73656ZM62.5 0C60.6597 0 58.8079 0.474436 57.1528 1.43488L5.34722 31.3359C2.03704 33.2452 0 36.7746 0 40.5932V100.407C0 104.225 2.03704 107.755 5.34722 109.664L57.1644 139.577C58.8194 140.526 60.6597 141.012 62.5116 141.012C64.3518 141.012 66.2037 140.537 67.8588 139.577L119.676 109.664C122.986 107.755 125.023 104.225 125.023 100.407V40.5932C125.023 36.7746 122.986 33.2452 119.676 31.3359L67.8472 1.43488C66.1921 0.474436 64.3403 0 62.5 0Z" fill="#9DCCED"/>
<path d="M28.2285 122.879L32.997 109.826L42.5919 117.799L33.622 125.992L28.2285 122.879Z" fill="#213147"/>
<path d="M58.136 36.3117H44.9994C44.0156 36.3117 43.136 36.925 42.8003 37.8507L14.6406 115.033L28.2286 122.879L59.2355 37.8854C59.5249 37.1217 58.9578 36.3117 58.136 36.3117Z" fill="white"/>
<path d="M81.1232 36.3117H67.9866C67.0028 36.3117 66.1232 36.925 65.7875 37.8507L33.6348 125.98L47.2227 133.826L82.2227 37.8854C82.5005 37.1217 81.9334 36.3117 81.1232 36.3117Z" fill="white"/>
</g>
<defs>
<clipPath id="clip0_4054_1849">
<rect width="125" height="141" fill="white"/>
</clipPath>
</defs>
</svg>