<svg xmlns="http://www.w3.org/2000/svg" width="613" height="154" viewBox="0 0 613 154" fill="none">
<path d="M177 143.239V110.267H189.222C191.725 110.267 193.826 110.739 195.524 111.684C197.232 112.628 198.521 113.927 199.391 115.58C200.271 117.222 200.711 119.09 200.711 121.182C200.711 123.297 200.271 125.175 199.391 126.817C198.51 128.459 197.21 129.753 195.492 130.697C193.773 131.631 191.656 132.098 189.142 132.098H181.042V127.188H188.346C189.811 127.188 191.009 126.93 191.943 126.415C192.877 125.9 193.566 125.191 194.012 124.29C194.468 123.388 194.696 122.352 194.696 121.182C194.696 120.013 194.468 118.982 194.012 118.091C193.566 117.201 192.871 116.508 191.927 116.015C190.993 115.51 189.789 115.258 188.315 115.258H182.904V143.239H177Z" fill="black"/>
<path d="M204.241 143.239V118.51H209.826V122.631H210.081C210.526 121.204 211.29 120.104 212.372 119.331C213.465 118.548 214.712 118.156 216.112 118.156C216.43 118.156 216.786 118.172 217.178 118.204C217.582 118.226 217.916 118.263 218.181 118.317V123.678C217.937 123.592 217.55 123.517 217.019 123.452C216.499 123.377 215.995 123.34 215.507 123.34C214.457 123.34 213.513 123.571 212.675 124.032C211.847 124.483 211.195 125.111 210.717 125.916C210.24 126.721 210.001 127.649 210.001 128.701V143.239H204.241Z" fill="black"/>
<path d="M230.319 143.722C227.932 143.722 225.864 143.19 224.113 142.128C222.363 141.065 221.005 139.579 220.039 137.668C219.084 135.758 218.607 133.525 218.607 130.971C218.607 128.416 219.084 126.179 220.039 124.257C221.005 122.336 222.363 120.844 224.113 119.782C225.864 118.719 227.932 118.188 230.319 118.188C232.706 118.188 234.775 118.719 236.526 119.782C238.276 120.844 239.629 122.336 240.584 124.257C241.549 126.179 242.032 128.416 242.032 130.971C242.032 133.525 241.549 135.758 240.584 137.668C239.629 139.579 238.276 141.065 236.526 142.128C234.775 143.19 232.706 143.722 230.319 143.722ZM230.351 139.053C231.646 139.053 232.728 138.693 233.598 137.974C234.468 137.244 235.115 136.268 235.539 135.044C235.974 133.82 236.192 132.457 236.192 130.955C236.192 129.441 235.974 128.073 235.539 126.849C235.115 125.615 234.468 124.633 233.598 123.903C232.728 123.173 231.646 122.809 230.351 122.809C229.025 122.809 227.922 123.173 227.041 123.903C226.171 124.633 225.519 125.615 225.084 126.849C224.659 128.073 224.447 129.441 224.447 130.955C224.447 132.457 224.659 133.82 225.084 135.044C225.519 136.268 226.171 137.244 227.041 137.974C227.922 138.693 229.025 139.053 230.351 139.053Z" fill="black"/>
<path d="M254.648 143.673C252.727 143.673 251.009 143.174 249.492 142.176C247.975 141.178 246.776 139.729 245.895 137.829C245.015 135.929 244.574 133.622 244.574 130.907C244.574 128.159 245.02 125.841 245.911 123.952C246.813 122.052 248.028 120.619 249.555 119.653C251.083 118.676 252.786 118.188 254.664 118.188C256.096 118.188 257.273 118.435 258.196 118.929C259.119 119.412 259.852 119.997 260.393 120.683C260.934 121.36 261.353 121.998 261.65 122.599H261.888V110.267H267.665V143.239H262V139.343H261.65C261.353 139.944 260.923 140.582 260.361 141.258C259.798 141.924 259.056 142.493 258.133 142.965C257.21 143.437 256.048 143.673 254.648 143.673ZM256.255 138.892C257.475 138.892 258.515 138.559 259.374 137.894C260.233 137.217 260.886 136.278 261.331 135.076C261.777 133.874 262 132.474 262 130.874C262 129.275 261.777 127.885 261.331 126.705C260.897 125.524 260.249 124.606 259.39 123.952C258.541 123.297 257.496 122.97 256.255 122.97C254.971 122.97 253.9 123.308 253.04 123.984C252.181 124.66 251.534 125.594 251.099 126.785C250.664 127.976 250.447 129.339 250.447 130.874C250.447 132.42 250.664 133.799 251.099 135.012C251.545 136.214 252.197 137.164 253.056 137.861C253.926 138.548 254.993 138.892 256.255 138.892Z" fill="black"/>
<path d="M288.039 132.838V118.51H293.8V143.239H288.214V138.843H287.959C287.408 140.228 286.501 141.36 285.238 142.24C283.986 143.121 282.443 143.561 280.607 143.561C279.005 143.561 277.589 143.201 276.358 142.482C275.138 141.752 274.183 140.695 273.494 139.31C272.804 137.915 272.459 136.23 272.459 134.255V118.51H278.22V133.354C278.22 134.921 278.645 136.166 279.493 137.089C280.342 138.012 281.456 138.473 282.835 138.473C283.684 138.473 284.506 138.264 285.302 137.845C286.097 137.427 286.75 136.804 287.259 135.978C287.779 135.141 288.039 134.094 288.039 132.838Z" fill="black"/>
<path d="M309.041 143.722C306.601 143.722 304.506 143.18 302.755 142.096C301.016 141.012 299.673 139.514 298.729 137.604C297.796 135.683 297.329 133.472 297.329 130.971C297.329 128.459 297.806 126.243 298.761 124.322C299.716 122.39 301.063 120.887 302.803 119.814C304.554 118.73 306.622 118.188 309.009 118.188C310.993 118.188 312.749 118.558 314.277 119.299C315.815 120.029 317.041 121.064 317.953 122.406C318.865 123.737 319.385 125.293 319.513 127.075H314.006C313.784 125.884 313.253 124.891 312.415 124.096C311.588 123.292 310.479 122.889 309.089 122.889C307.911 122.889 306.877 123.211 305.986 123.855C305.095 124.488 304.4 125.401 303.901 126.592C303.413 127.783 303.169 129.211 303.169 130.874C303.169 132.559 303.413 134.008 303.901 135.221C304.389 136.423 305.074 137.352 305.954 138.006C306.845 138.65 307.89 138.972 309.089 138.972C309.938 138.972 310.696 138.811 311.365 138.489C312.044 138.157 312.611 137.679 313.067 137.056C313.524 136.434 313.837 135.677 314.006 134.786H319.513C319.375 136.536 318.865 138.087 317.985 139.439C317.104 140.781 315.905 141.833 314.388 142.595C312.871 143.346 311.089 143.722 309.041 143.722Z" fill="black"/>
<path d="M335.104 118.51V123.018H321.052V118.51H335.104ZM324.522 112.585H330.282V135.801C330.282 136.584 330.399 137.185 330.633 137.604C330.877 138.012 331.195 138.291 331.587 138.441C331.98 138.591 332.415 138.666 332.892 138.666C333.253 138.666 333.582 138.64 333.879 138.586C334.187 138.532 334.42 138.484 334.579 138.441L335.55 142.997C335.242 143.104 334.802 143.223 334.229 143.351C333.667 143.48 332.977 143.555 332.16 143.577C330.717 143.62 329.418 143.4 328.261 142.917C327.105 142.423 326.187 141.661 325.508 140.631C324.84 139.6 324.511 138.312 324.522 136.767V112.585Z" fill="black"/>
<path d="M359.011 143.722C356.624 143.722 354.555 143.19 352.805 142.128C351.054 141.065 349.696 139.579 348.731 137.668C347.776 135.758 347.299 133.525 347.299 130.971C347.299 128.416 347.776 126.179 348.731 124.257C349.696 122.336 351.054 120.844 352.805 119.782C354.555 118.719 356.624 118.188 359.011 118.188C361.398 118.188 363.467 118.719 365.218 119.782C366.968 120.844 368.321 122.336 369.276 124.257C370.241 126.179 370.724 128.416 370.724 130.971C370.724 133.525 370.241 135.758 369.276 137.668C368.321 139.579 366.968 141.065 365.218 142.128C363.467 143.19 361.398 143.722 359.011 143.722ZM359.043 139.053C360.337 139.053 361.419 138.693 362.289 137.974C363.159 137.244 363.807 136.268 364.231 135.044C364.666 133.82 364.883 132.457 364.883 130.955C364.883 129.441 364.666 128.073 364.231 126.849C363.807 125.615 363.159 124.633 362.289 123.903C361.419 123.173 360.337 122.809 359.043 122.809C357.717 122.809 356.614 123.173 355.733 123.903C354.863 124.633 354.211 125.615 353.776 126.849C353.351 128.073 353.139 129.441 353.139 130.955C353.139 132.457 353.351 133.82 353.776 135.044C354.211 136.268 354.863 137.244 355.733 137.974C356.614 138.693 357.717 139.053 359.043 139.053Z" fill="black"/>
<path d="M386.65 118.51V123.018H372.2V118.51H386.65ZM375.812 143.239V116.176C375.812 114.512 376.152 113.127 376.831 112.022C377.52 110.916 378.443 110.09 379.6 109.543C380.756 108.995 382.04 108.722 383.451 108.722C384.448 108.722 385.334 108.802 386.109 108.963C386.883 109.124 387.456 109.269 387.827 109.398L386.681 113.906C386.437 113.83 386.13 113.755 385.758 113.68C385.387 113.594 384.973 113.551 384.517 113.551C383.446 113.551 382.687 113.814 382.241 114.34C381.807 114.855 381.589 115.596 381.589 116.562V143.239H375.812Z" fill="black"/>
<path d="M399.095 143.239V110.267H421.819V116.739H406.972V123.501H420.658V129.989H406.972V136.767H421.819V143.239H399.095Z" fill="black"/>
<path d="M439.205 118.51V124.306H423.785V118.51H439.205ZM427.016 112.585H434.797V135.463C434.797 135.946 434.872 136.337 435.02 136.638C435.179 136.928 435.407 137.137 435.704 137.266C436.001 137.384 436.357 137.443 436.771 137.443C437.068 137.443 437.381 137.416 437.71 137.362C438.049 137.298 438.304 137.244 438.473 137.201L439.651 142.884C439.28 142.992 438.755 143.126 438.076 143.287C437.407 143.448 436.606 143.55 435.673 143.593C433.848 143.679 432.283 143.464 430.978 142.949C429.684 142.423 428.692 141.607 428.002 140.502C427.323 139.396 426.994 138.006 427.016 136.332V112.585Z" fill="black"/>
<path d="M450.138 129.136V143.239H442.357V110.267H449.884V123.05H450.154C450.706 121.526 451.608 120.335 452.86 119.476C454.122 118.617 455.666 118.188 457.491 118.188C459.209 118.188 460.705 118.574 461.978 119.347C463.251 120.109 464.238 121.188 464.938 122.583C465.649 123.978 465.999 125.61 465.988 127.477V143.239H458.207V129.023C458.217 127.649 457.878 126.576 457.188 125.803C456.499 125.03 455.528 124.644 454.276 124.644C453.459 124.644 452.738 124.826 452.112 125.191C451.496 125.545 451.014 126.055 450.664 126.721C450.324 127.386 450.149 128.191 450.138 129.136Z" fill="black"/>
<path d="M480.928 143.705C478.371 143.705 476.164 143.196 474.308 142.176C472.462 141.146 471.04 139.681 470.043 137.781C469.056 135.87 468.563 133.6 468.563 130.971C468.563 128.416 469.061 126.184 470.059 124.274C471.056 122.352 472.462 120.861 474.276 119.798C476.09 118.725 478.228 118.188 480.689 118.188C482.429 118.188 484.02 118.462 485.463 119.009C486.906 119.556 488.153 120.367 489.203 121.44C490.253 122.513 491.07 123.839 491.654 125.417C492.237 126.984 492.529 128.781 492.529 130.81V132.774H471.284V128.202H485.288C485.277 127.365 485.081 126.619 484.699 125.964C484.317 125.309 483.792 124.799 483.124 124.435C482.466 124.059 481.708 123.871 480.848 123.871C479.978 123.871 479.198 124.07 478.509 124.467C477.819 124.853 477.273 125.384 476.87 126.061C476.467 126.726 476.254 127.483 476.233 128.331V132.983C476.233 133.992 476.429 134.878 476.822 135.64C477.215 136.391 477.772 136.976 478.493 137.395C479.214 137.813 480.074 138.022 481.071 138.022C481.761 138.022 482.387 137.926 482.949 137.733C483.511 137.539 483.994 137.255 484.397 136.879C484.8 136.504 485.102 136.042 485.304 135.495L492.449 135.704C492.152 137.325 491.5 138.736 490.492 139.938C489.495 141.13 488.184 142.058 486.561 142.723C484.938 143.378 483.06 143.705 480.928 143.705Z" fill="black"/>
<path d="M495.159 143.239V118.51H502.718V123.018H502.973C503.418 121.386 504.145 120.174 505.153 119.379C506.161 118.574 507.333 118.172 508.67 118.172C509.03 118.172 509.402 118.199 509.784 118.252C510.165 118.295 510.521 118.365 510.85 118.462V125.304C510.478 125.175 509.99 125.073 509.386 124.998C508.792 124.923 508.261 124.885 507.794 124.885C506.871 124.885 506.039 125.095 505.296 125.513C504.564 125.921 503.986 126.495 503.561 127.236C503.148 127.966 502.941 128.824 502.941 129.812V143.239H495.159Z" fill="black"/>
<path d="M534.016 126.061L526.871 126.254C526.797 125.739 526.595 125.282 526.266 124.885C525.938 124.477 525.508 124.161 524.977 123.935C524.458 123.699 523.853 123.581 523.163 123.581C522.262 123.581 521.492 123.764 520.856 124.129C520.23 124.494 519.922 124.987 519.933 125.61C519.922 126.093 520.113 126.511 520.506 126.866C520.909 127.22 521.625 127.504 522.654 127.719L527.365 128.62C529.805 129.093 531.619 129.876 532.807 130.971C534.006 132.066 534.611 133.515 534.621 135.318C534.611 137.014 534.112 138.489 533.125 139.745C532.149 141.001 530.812 141.977 529.115 142.675C527.418 143.362 525.476 143.705 523.291 143.705C519.8 143.705 517.047 142.981 515.031 141.532C513.026 140.072 511.881 138.119 511.594 135.672L519.28 135.479C519.45 136.38 519.89 137.067 520.601 137.539C521.312 138.012 522.219 138.248 523.322 138.248C524.32 138.248 525.131 138.06 525.757 137.684C526.383 137.309 526.701 136.81 526.712 136.187C526.701 135.629 526.457 135.184 525.98 134.851C525.503 134.507 524.755 134.239 523.736 134.046L519.471 133.225C517.021 132.774 515.196 131.942 513.997 130.729C512.798 129.506 512.204 127.95 512.215 126.061C512.204 124.408 512.639 122.996 513.52 121.826C514.4 120.646 515.652 119.744 517.275 119.122C518.898 118.499 520.813 118.188 523.02 118.188C526.33 118.188 528.94 118.891 530.85 120.297C532.759 121.692 533.815 123.613 534.016 126.061Z" fill="black"/>
<path d="M548.518 143.705C545.94 143.705 543.728 143.169 541.882 142.096C540.047 141.022 538.636 139.53 537.649 137.62C536.662 135.699 536.169 133.477 536.169 130.955C536.169 128.422 536.662 126.2 537.649 124.29C538.646 122.368 540.063 120.871 541.898 119.798C543.744 118.725 545.945 118.188 548.502 118.188C550.762 118.188 552.73 118.601 554.406 119.428C556.093 120.254 557.408 121.424 558.353 122.937C559.308 124.44 559.811 126.205 559.864 128.234H552.592C552.443 126.968 552.019 125.975 551.319 125.256C550.629 124.537 549.728 124.177 548.614 124.177C547.712 124.177 546.921 124.435 546.242 124.95C545.563 125.454 545.033 126.205 544.651 127.204C544.28 128.191 544.094 129.415 544.094 130.874C544.094 132.334 544.28 133.568 544.651 134.577C545.033 135.575 545.563 136.332 546.242 136.847C546.921 137.352 547.712 137.604 548.614 137.604C549.335 137.604 549.972 137.448 550.523 137.137C551.085 136.826 551.547 136.37 551.908 135.769C552.268 135.157 552.496 134.416 552.592 133.547H559.864C559.79 135.586 559.286 137.368 558.353 138.892C557.43 140.416 556.13 141.602 554.454 142.45C552.788 143.287 550.81 143.705 548.518 143.705Z" fill="black"/>
<path d="M569.393 143.657C567.834 143.657 566.449 143.394 565.24 142.868C564.041 142.332 563.091 141.527 562.391 140.453C561.702 139.369 561.357 138.012 561.357 136.38C561.357 135.006 561.595 133.847 562.073 132.903C562.55 131.958 563.208 131.191 564.046 130.601C564.884 130.01 565.85 129.565 566.942 129.264C568.035 128.953 569.202 128.744 570.443 128.636C571.833 128.508 572.952 128.374 573.801 128.234C574.65 128.084 575.265 127.874 575.647 127.606C576.04 127.327 576.236 126.935 576.236 126.431V126.35C576.236 125.524 575.955 124.885 575.393 124.435C574.83 123.984 574.072 123.758 573.117 123.758C572.088 123.758 571.26 123.984 570.634 124.435C570.008 124.885 569.611 125.508 569.441 126.302L562.264 126.044C562.476 124.542 563.022 123.2 563.903 122.02C564.794 120.828 566.014 119.895 567.563 119.218C569.123 118.531 570.995 118.188 573.181 118.188C574.74 118.188 576.178 118.376 577.493 118.751C578.809 119.116 579.955 119.653 580.931 120.361C581.907 121.059 582.66 121.918 583.19 122.937C583.731 123.957 584.002 125.121 584.002 126.431V143.239H576.682V139.793H576.491C576.056 140.631 575.499 141.339 574.82 141.918C574.151 142.498 573.361 142.933 572.449 143.223C571.547 143.512 570.528 143.657 569.393 143.657ZM571.796 138.505C572.634 138.505 573.387 138.334 574.056 137.99C574.735 137.647 575.276 137.175 575.679 136.573C576.082 135.962 576.284 135.253 576.284 134.448V132.098C576.061 132.216 575.79 132.323 575.472 132.42C575.164 132.516 574.825 132.608 574.454 132.694C574.082 132.779 573.7 132.855 573.308 132.919C572.915 132.983 572.539 133.042 572.178 133.096C571.446 133.214 570.82 133.397 570.3 133.643C569.791 133.89 569.398 134.212 569.123 134.609C568.857 134.996 568.725 135.457 568.725 135.994C568.725 136.81 569.011 137.432 569.584 137.861C570.168 138.291 570.905 138.505 571.796 138.505Z" fill="black"/>
<path d="M595.197 129.136V143.239H587.416V118.51H594.816V123.05H595.086C595.627 121.537 596.55 120.351 597.855 119.492C599.16 118.623 600.714 118.188 602.518 118.188C604.236 118.188 605.727 118.58 606.99 119.363C608.263 120.136 609.249 121.22 609.949 122.615C610.66 124 611.01 125.621 611 127.477V143.239H603.218V129.023C603.229 127.649 602.884 126.576 602.184 125.803C601.494 125.03 600.534 124.644 599.303 124.644C598.486 124.644 597.765 124.826 597.139 125.191C596.524 125.545 596.046 126.055 595.707 126.721C595.378 127.386 595.208 128.191 595.197 129.136Z" fill="black"/>
<path d="M175.99 84.7216V11.9943H202.624C207.785 11.9943 212.058 12.8466 215.443 14.5511C218.829 16.232 221.362 18.5166 223.043 21.4048C224.724 24.2694 225.564 27.5009 225.564 31.0994C225.564 34.1297 225.008 36.6866 223.895 38.7699C222.782 40.8295 221.291 42.4867 219.421 43.7415C217.574 44.9725 215.538 45.8722 213.313 46.4403V47.1506C215.727 47.2689 218.083 48.0502 220.379 49.4943C222.7 50.9148 224.617 52.9389 226.132 55.5668C227.647 58.1946 228.405 61.3906 228.405 65.1548C228.405 68.8717 227.529 72.2098 225.777 75.169C224.049 78.1046 221.374 80.4366 217.752 82.1648C214.129 83.8693 209.501 84.7216 203.867 84.7216H175.99ZM186.963 75.3111H202.801C208.057 75.3111 211.821 74.2931 214.094 72.2571C216.367 70.2211 217.503 67.6761 217.503 64.6222C217.503 62.3258 216.923 60.2188 215.763 58.3011C214.603 56.3835 212.946 54.8565 210.791 53.7202C208.661 52.5838 206.128 52.0156 203.192 52.0156H186.963V75.3111ZM186.963 43.4574H201.665C204.127 43.4574 206.341 42.9839 208.306 42.0369C210.294 41.09 211.869 39.7642 213.029 38.0597C214.212 36.3314 214.804 34.2955 214.804 31.9517C214.804 28.9451 213.751 26.4238 211.644 24.3878C209.537 22.3518 206.305 21.3338 201.949 21.3338H186.963V43.4574Z" fill="#0A0B0D"/>
<path d="M253.441 85.929C249.985 85.929 246.86 85.2898 244.066 84.0114C241.273 82.7093 239.059 80.8272 237.426 78.3651C235.816 75.9029 235.011 72.8845 235.011 69.3097C235.011 66.232 235.603 63.6989 236.786 61.7102C237.97 59.7216 239.568 58.1473 241.58 56.9872C243.593 55.8272 245.842 54.9512 248.328 54.3594C250.813 53.7675 253.347 53.3177 255.927 53.0099C259.194 52.6312 261.846 52.3234 263.882 52.0867C265.918 51.8262 267.397 51.4119 268.32 50.8438C269.244 50.2756 269.705 49.3523 269.705 48.0739V47.8253C269.705 44.724 268.829 42.321 267.078 40.6165C265.349 38.9119 262.769 38.0597 259.336 38.0597C255.761 38.0597 252.944 38.8527 250.884 40.4389C248.848 42.0014 247.44 43.7415 246.659 45.6591L236.68 43.3864C237.864 40.072 239.592 37.3968 241.865 35.3608C244.161 33.3011 246.801 31.8097 249.784 30.8864C252.767 29.9394 255.903 29.4659 259.194 29.4659C261.372 29.4659 263.68 29.7263 266.119 30.2472C268.581 30.7443 270.877 31.6676 273.008 33.017C275.162 34.3665 276.926 36.2959 278.299 38.8054C279.672 41.2912 280.359 44.5227 280.359 48.5V84.7216H269.99V77.2642H269.563C268.877 78.6373 267.847 79.9867 266.474 81.3125C265.101 82.6383 263.337 83.7391 261.183 84.6151C259.028 85.491 256.448 85.929 253.441 85.929ZM255.749 77.4062C258.685 77.4062 261.195 76.8262 263.278 75.6662C265.385 74.5062 266.983 72.991 268.072 71.1207C269.185 69.2268 269.741 67.2027 269.741 65.0483V58.017C269.362 58.3958 268.628 58.7509 267.539 59.0824C266.474 59.3902 265.255 59.6624 263.882 59.8992C262.508 60.1122 261.171 60.3134 259.869 60.5028C258.567 60.6686 257.478 60.8106 256.602 60.929C254.542 61.1894 252.66 61.6274 250.955 62.2429C249.275 62.8584 247.925 63.7462 246.907 64.9062C245.913 66.0426 245.416 67.5578 245.416 69.4517C245.416 72.0795 246.386 74.0682 248.328 75.4176C250.269 76.7434 252.743 77.4062 255.749 77.4062Z" fill="#0A0B0D"/>
<path d="M332.375 43.4929L322.751 45.1974C322.349 43.9664 321.71 42.7945 320.834 41.6818C319.981 40.5691 318.821 39.6577 317.354 38.9474C315.886 38.2372 314.051 37.8821 311.849 37.8821C308.843 37.8821 306.333 38.5568 304.321 39.9062C302.309 41.232 301.302 42.9484 301.302 45.0554C301.302 46.8783 301.977 48.3461 303.327 49.4588C304.676 50.5715 306.854 51.483 309.861 52.1932L318.525 54.1818C323.544 55.3419 327.285 57.1293 329.747 59.544C332.209 61.9588 333.44 65.0956 333.44 68.9545C333.44 72.2216 332.493 75.1335 330.599 77.6903C328.729 80.2235 326.113 82.2121 322.751 83.6562C319.413 85.1004 315.542 85.8224 311.139 85.8224C305.031 85.8224 300.048 84.5204 296.189 81.9162C292.33 79.2884 289.962 75.5597 289.086 70.7301L299.349 69.1676C299.988 71.8428 301.302 73.867 303.291 75.2401C305.28 76.5895 307.872 77.2642 311.068 77.2642C314.548 77.2642 317.33 76.5421 319.413 75.098C321.497 73.6302 322.538 71.8428 322.538 69.7358C322.538 68.0313 321.899 66.599 320.621 65.4389C319.366 64.2789 317.436 63.4029 314.832 62.8111L305.599 60.7869C300.509 59.6269 296.745 57.7803 294.307 55.2472C291.892 52.714 290.684 49.5062 290.684 45.6236C290.684 42.4039 291.584 39.5866 293.383 37.1719C295.183 34.7571 297.668 32.875 300.841 31.5256C304.013 30.1525 307.647 29.4659 311.743 29.4659C317.638 29.4659 322.278 30.7443 325.663 33.3011C329.049 35.8343 331.286 39.2315 332.375 43.4929Z" fill="#0A0B0D"/>
<path d="M365.623 85.8224C360.249 85.8224 355.621 84.6742 351.738 82.3778C347.879 80.0578 344.896 76.8026 342.789 72.6122C340.706 68.3982 339.664 63.4621 339.664 57.804C339.664 52.2169 340.706 47.2926 342.789 43.0312C344.896 38.7699 347.832 35.4437 351.596 33.0526C355.384 30.6615 359.811 29.4659 364.877 29.4659C367.955 29.4659 370.938 29.9749 373.826 30.9929C376.714 32.0109 379.307 33.6089 381.603 35.7869C383.9 37.965 385.711 40.794 387.036 44.2742C388.362 47.7306 389.025 51.9328 389.025 56.8807V60.6449H345.666V52.6903H378.62C378.62 49.8968 378.052 47.4228 376.916 45.2685C375.779 43.0904 374.181 41.3741 372.122 40.1193C370.086 38.8646 367.695 38.2372 364.948 38.2372C361.965 38.2372 359.361 38.9711 357.136 40.4389C354.934 41.8831 353.23 43.777 352.022 46.1207C350.838 48.4408 350.247 50.9621 350.247 53.6847V59.8992C350.247 63.545 350.886 66.6463 352.164 69.2031C353.466 71.7599 355.277 73.7131 357.597 75.0625C359.918 76.3883 362.628 77.0511 365.73 77.0511C367.742 77.0511 369.577 76.767 371.234 76.1989C372.891 75.607 374.323 74.7311 375.531 73.571C376.738 72.411 377.661 70.9787 378.301 69.2742L388.35 71.0852C387.545 74.0445 386.101 76.6368 384.018 78.8622C381.958 81.0639 379.366 82.7803 376.241 84.0114C373.14 85.2188 369.6 85.8224 365.623 85.8224Z" fill="#0A0B0D"/>
<path d="M438.324 31.0994C437.946 27.7377 436.383 25.1335 433.637 23.2869C430.891 21.4167 427.434 20.4815 423.268 20.4815C420.285 20.4815 417.704 20.955 415.526 21.902C413.348 22.8253 411.655 24.1037 410.448 25.7372C409.264 27.3471 408.672 29.1818 408.672 31.2415C408.672 32.9697 409.075 34.4612 409.88 35.7159C410.708 36.9706 411.786 38.0241 413.111 38.8764C414.461 39.705 415.905 40.4034 417.444 40.9716C418.983 41.5161 420.462 41.9659 421.883 42.321L428.985 44.1676C431.305 44.7358 433.684 45.5052 436.123 46.4759C438.561 47.4465 440.822 48.7249 442.905 50.3111C444.989 51.8973 446.67 53.8622 447.948 56.206C449.25 58.5497 449.901 61.3551 449.901 64.6222C449.901 68.7415 448.836 72.3991 446.705 75.5952C444.598 78.7912 441.532 81.3125 437.508 83.1591C433.507 85.0057 428.665 85.929 422.983 85.929C417.538 85.929 412.827 85.0649 408.85 83.3366C404.873 81.6084 401.76 79.1581 399.51 75.9858C397.261 72.7898 396.019 69.0019 395.782 64.6222H406.79C407.003 67.25 407.856 69.4399 409.347 71.1918C410.862 72.92 412.792 74.2102 415.135 75.0625C417.503 75.8911 420.095 76.3054 422.912 76.3054C426.014 76.3054 428.772 75.8201 431.187 74.8494C433.625 73.8551 435.543 72.482 436.939 70.7301C438.336 68.9545 439.035 66.883 439.035 64.5156C439.035 62.3613 438.419 60.5975 437.188 59.2244C435.981 57.8513 434.335 56.715 432.252 55.8153C430.192 54.9157 427.86 54.1226 425.256 53.4361L416.662 51.0923C410.839 49.5062 406.222 47.1742 402.813 44.0966C399.428 41.0189 397.735 36.947 397.735 31.8807C397.735 27.6903 398.871 24.0327 401.144 20.9077C403.417 17.7827 406.494 15.3561 410.377 13.6278C414.26 11.8759 418.639 11 423.516 11C428.44 11 432.785 11.8641 436.549 13.5923C440.337 15.3206 443.32 17.6998 445.498 20.7301C447.676 23.7367 448.812 27.1932 448.907 31.0994H438.324Z" fill="#0A0B0D"/>
<path d="M482.137 85.8224C476.858 85.8224 472.312 84.6269 468.501 82.2358C464.713 79.821 461.801 76.4948 459.765 72.2571C457.729 68.0194 456.711 63.1662 456.711 57.6974C456.711 52.1577 457.753 47.2689 459.836 43.0312C461.919 38.7699 464.855 35.4437 468.643 33.0526C472.431 30.6615 476.893 29.4659 482.031 29.4659C486.174 29.4659 489.867 30.2353 493.11 31.7742C496.354 33.2893 498.97 35.42 500.958 38.1662C502.971 40.9124 504.166 44.1203 504.545 47.7898H494.211C493.643 45.233 492.341 43.0313 490.305 41.1847C488.293 39.3381 485.594 38.4148 482.208 38.4148C479.249 38.4148 476.657 39.196 474.431 40.7585C472.23 42.2974 470.513 44.4991 469.282 47.3636C468.051 50.2045 467.436 53.5663 467.436 57.4489C467.436 61.4261 468.039 64.8589 469.247 67.7472C470.454 70.6354 472.159 72.8726 474.36 74.4588C476.586 76.045 479.202 76.8381 482.208 76.8381C484.221 76.8381 486.044 76.4711 487.677 75.7372C489.334 74.9796 490.719 73.9025 491.832 72.5057C492.968 71.1089 493.761 69.428 494.211 67.4631H504.545C504.166 70.9905 503.018 74.1392 501.1 76.9091C499.183 79.679 496.614 81.857 493.394 83.4432C490.198 85.0294 486.446 85.8224 482.137 85.8224Z" fill="#0A0B0D"/>
<path d="M528.773 85.929C525.317 85.929 522.192 85.2898 519.398 84.0114C516.605 82.7093 514.391 80.8272 512.758 78.3651C511.148 75.9029 510.343 72.8845 510.343 69.3097C510.343 66.232 510.935 63.6989 512.118 61.7102C513.302 59.7216 514.9 58.1473 516.912 56.9872C518.925 55.8272 521.174 54.9512 523.66 54.3594C526.145 53.7675 528.679 53.3177 531.259 53.0099C534.526 52.6312 537.178 52.3234 539.214 52.0867C541.25 51.8262 542.729 51.4119 543.653 50.8438C544.576 50.2756 545.037 49.3523 545.037 48.0739V47.8253C545.037 44.724 544.162 42.321 542.41 40.6165C540.681 38.9119 538.101 38.0597 534.668 38.0597C531.093 38.0597 528.276 38.8527 526.216 40.4389C524.18 42.0014 522.772 43.7415 521.991 45.6591L512.012 43.3864C513.196 40.072 514.924 37.3968 517.197 35.3608C519.493 33.3011 522.133 31.8097 525.116 30.8864C528.099 29.9394 531.235 29.4659 534.526 29.4659C536.704 29.4659 539.012 29.7263 541.451 30.2472C543.913 30.7443 546.209 31.6676 548.34 33.017C550.494 34.3665 552.258 36.2959 553.631 38.8054C555.004 41.2912 555.691 44.5227 555.691 48.5V84.7216H545.322V77.2642H544.895C544.209 78.6373 543.179 79.9867 541.806 81.3125C540.433 82.6383 538.669 83.7391 536.515 84.6151C534.36 85.491 531.78 85.929 528.773 85.929ZM531.082 77.4062C534.017 77.4062 536.527 76.8262 538.61 75.6662C540.717 74.5062 542.315 72.991 543.404 71.1207C544.517 69.2268 545.073 67.2027 545.073 65.0483V58.017C544.694 58.3958 543.96 58.7509 542.871 59.0824C541.806 59.3902 540.587 59.6624 539.214 59.8992C537.84 60.1122 536.503 60.3134 535.201 60.5028C533.899 60.6686 532.81 60.8106 531.934 60.929C529.874 61.1894 527.992 61.6274 526.287 62.2429C524.607 62.8584 523.257 63.7462 522.239 64.9062C521.245 66.0426 520.748 67.5578 520.748 69.4517C520.748 72.0795 521.718 74.0682 523.66 75.4176C525.601 76.7434 528.075 77.4062 531.082 77.4062Z" fill="#0A0B0D"/>
<path d="M577.451 52.3352V84.7216H566.833V30.1761H577.025V39.054H577.7C578.954 36.1657 580.919 33.8456 583.595 32.0938C586.293 30.3419 589.691 29.4659 593.786 29.4659C597.503 29.4659 600.758 30.2472 603.552 31.8097C606.346 33.3485 608.512 35.6449 610.051 38.6989C611.589 41.7528 612.359 45.5289 612.359 50.027V84.7216H601.741V51.3054C601.741 47.3518 600.711 44.2623 598.651 42.0369C596.592 39.7879 593.763 38.6634 590.164 38.6634C587.702 38.6634 585.512 39.196 583.595 40.2614C581.701 41.3267 580.197 42.8892 579.085 44.9489C577.996 46.9848 577.451 49.447 577.451 52.3352Z" fill="#0A0B0D"/>
<path d="M32.856 73.722C32.8562 72.8665 33.0253 72.0195 33.3538 71.2295C33.6822 70.4396 34.1634 69.7223 34.7698 69.1188C35.3762 68.5154 36.0958 68.0376 36.8873 67.713C37.6789 67.3884 38.5267 67.2234 39.3822 67.2274L50.2024 67.2626C51.9276 67.2626 53.5821 67.948 54.802 69.1678C56.0218 70.3877 56.7072 72.0422 56.7072 73.7674V114.68C57.9252 114.319 59.4897 113.933 61.2015 113.53C62.3906 113.251 63.4504 112.578 64.2089 111.621C64.9674 110.663 65.38 109.478 65.3798 108.256V57.5055C65.3798 55.7802 66.065 54.1256 67.2848 52.9055C68.5047 51.6855 70.1592 50.9999 71.8845 50.9995H82.7261C84.4514 50.9999 86.1059 51.6855 87.3258 52.9055C88.5456 54.1256 89.2309 55.7802 89.2309 57.5055V104.607C89.2309 104.607 91.9454 103.509 94.5894 102.393C95.5716 101.977 96.4097 101.282 96.9993 100.393C97.5889 99.5045 97.9038 98.462 97.9047 97.3955V41.2437C97.9047 39.5187 98.5898 37.8644 99.8094 36.6446C101.029 35.4247 102.683 34.7393 104.408 34.7389H115.25C116.975 34.7389 118.63 35.4243 119.849 36.6441C121.069 37.864 121.755 39.5185 121.755 41.2437V87.4835C131.154 80.6714 140.679 72.4788 148.238 62.6272C149.335 61.1972 150.061 59.5181 150.35 57.7396C150.64 55.9611 150.485 54.1384 149.9 52.4343C146.401 42.367 140.839 33.141 133.57 25.3467C126.301 17.5524 117.484 11.3614 107.685 7.16992C97.886 2.97846 87.3197 0.878835 76.6625 1.0054C66.0053 1.13196 55.4918 3.48194 45.795 7.90493C36.0981 12.3279 27.4313 18.7265 20.3493 26.6913C13.2673 34.656 7.92599 44.0115 4.66718 54.159C1.40838 64.3066 0.303866 75.0226 1.42431 85.6215C2.54475 96.2205 5.86549 106.469 11.174 115.711C12.0988 117.305 13.4592 118.602 15.0956 119.45C16.7321 120.298 18.5764 120.661 20.4121 120.497C22.4628 120.317 25.0161 120.061 28.0518 119.705C29.3733 119.555 30.5934 118.924 31.4796 117.932C32.3658 116.941 32.8562 115.658 32.8573 114.328V73.722" fill="#0A0B0D"/>
<path d="M32.856 73.722C32.8562 72.8665 33.0253 72.0195 33.3538 71.2295C33.6822 70.4396 34.1634 69.7223 34.7698 69.1188C35.3762 68.5154 36.0958 68.0376 36.8873 67.713C37.6789 67.3884 38.5267 67.2234 39.3822 67.2274L50.2024 67.2626C51.9276 67.2626 53.5821 67.948 54.802 69.1678C56.0218 70.3877 56.7072 72.0422 56.7072 73.7674V114.68C57.9252 114.319 59.4897 113.933 61.2015 113.53C62.3906 113.251 63.4504 112.578 64.2089 111.621C64.9674 110.663 65.38 109.478 65.3798 108.256V57.5055C65.3798 55.7802 66.065 54.1256 67.2848 52.9055C68.5047 51.6855 70.1592 50.9999 71.8845 50.9995H82.7261C84.4514 50.9999 86.1059 51.6855 87.3258 52.9055C88.5456 54.1256 89.2309 55.7802 89.2309 57.5055V104.607C89.2309 104.607 91.9454 103.509 94.5894 102.393C95.5716 101.977 96.4097 101.282 96.9993 100.393C97.5889 99.5045 97.9038 98.462 97.9047 97.3955V41.2437C97.9047 39.5187 98.5898 37.8644 99.8094 36.6446C101.029 35.4247 102.683 34.7393 104.408 34.7389H115.25C116.975 34.7389 118.63 35.4243 119.849 36.6441C121.069 37.864 121.755 39.5185 121.755 41.2437V87.4835C131.154 80.6714 140.679 72.4788 148.238 62.6272C149.335 61.1972 150.061 59.5181 150.35 57.7396C150.64 55.9611 150.485 54.1384 149.9 52.4343C146.401 42.367 140.839 33.141 133.57 25.3467C126.301 17.5524 117.484 11.3614 107.685 7.16992C97.886 2.97846 87.3197 0.878835 76.6625 1.0054C66.0053 1.13196 55.4918 3.48194 45.795 7.90493C36.0981 12.3279 27.4313 18.7265 20.3493 26.6913C13.2673 34.656 7.92599 44.0115 4.66718 54.159C1.40838 64.3066 0.303866 75.0226 1.42431 85.6215C2.54475 96.2205 5.86549 106.469 11.174 115.711C12.0988 117.305 13.4592 118.602 15.0956 119.45C16.7321 120.298 18.5764 120.661 20.4121 120.497C22.4628 120.317 25.0161 120.061 28.0518 119.705C29.3733 119.555 30.5934 118.924 31.4796 117.932C32.3658 116.941 32.8562 115.658 32.8573 114.328V73.722" stroke="white"/>
<path d="M32.6191 139.343C44.047 147.657 57.5522 152.647 71.6404 153.761C85.7285 154.876 99.8504 152.071 112.443 145.658C125.036 139.244 135.61 129.471 142.993 117.421C150.376 105.371 154.282 91.5134 154.278 77.3813C154.278 75.6178 154.196 73.8732 154.079 72.1386C126.091 113.88 74.415 133.395 32.6217 139.336" fill="#C0D0DB"/>
</svg>