<svg width="470" height="122" viewBox="0 0 470 122" fill="none" xmlns="http://www.w3.org/2000/svg">
<path d="M159.918 94.058C159.918 95.2153 159.639 96.3003 159.081 97.313C158.543 98.3257 157.686 99.142 156.508 99.762C155.35 100.382 153.883 100.692 152.106 100.692H148.479V109H144.139V87.362H152.106C153.78 87.362 155.206 87.6513 156.384 88.23C157.562 88.8087 158.44 89.6043 159.019 90.617C159.618 91.6297 159.918 92.7767 159.918 94.058ZM151.92 97.189C153.118 97.189 154.007 96.9203 154.586 96.383C155.164 95.825 155.454 95.05 155.454 94.058C155.454 91.95 154.276 90.896 151.92 90.896H148.479V97.189H151.92Z" fill="#414549"/>
<path d="M167.339 94.492C167.897 93.5827 168.62 92.8697 169.509 92.353C170.418 91.8363 171.452 91.578 172.609 91.578V96.135H171.462C170.098 96.135 169.065 96.4553 168.362 97.096C167.68 97.7367 167.339 98.8527 167.339 100.444V109H162.999V91.826H167.339V94.492Z" fill="#414549"/>
<path d="M183.158 109.279C181.505 109.279 180.017 108.917 178.694 108.194C177.372 107.45 176.328 106.406 175.563 105.063C174.819 103.72 174.447 102.17 174.447 100.413C174.447 98.6563 174.83 97.1063 175.594 95.763C176.38 94.4197 177.444 93.3863 178.787 92.663C180.131 91.919 181.629 91.547 183.282 91.547C184.936 91.547 186.434 91.919 187.777 92.663C189.121 93.3863 190.175 94.4197 190.939 95.763C191.725 97.1063 192.117 98.6563 192.117 100.413C192.117 102.17 191.714 103.72 190.908 105.063C190.123 106.406 189.048 107.45 187.684 108.194C186.341 108.917 184.832 109.279 183.158 109.279ZM183.158 105.497C183.944 105.497 184.677 105.311 185.359 104.939C186.062 104.546 186.62 103.968 187.033 103.203C187.447 102.438 187.653 101.508 187.653 100.413C187.653 98.7803 187.219 97.53 186.351 96.662C185.504 95.7733 184.46 95.329 183.22 95.329C181.98 95.329 180.937 95.7733 180.089 96.662C179.263 97.53 178.849 98.7803 178.849 100.413C178.849 102.046 179.252 103.306 180.058 104.195C180.885 105.063 181.918 105.497 183.158 105.497Z" fill="#414549"/>
<path d="M194.185 100.351C194.185 98.615 194.526 97.0753 195.208 95.732C195.91 94.3887 196.861 93.3553 198.06 92.632C199.258 91.9087 200.591 91.547 202.059 91.547C203.175 91.547 204.239 91.795 205.252 92.291C206.264 92.7663 207.07 93.407 207.67 94.213V86.06H212.072V109H207.67V106.458C207.132 107.305 206.378 107.987 205.407 108.504C204.435 109.021 203.309 109.279 202.028 109.279C200.581 109.279 199.258 108.907 198.06 108.163C196.861 107.419 195.91 106.375 195.208 105.032C194.526 103.668 194.185 102.108 194.185 100.351ZM207.701 100.413C207.701 99.359 207.494 98.46 207.081 97.716C206.667 96.9513 206.109 96.3727 205.407 95.98C204.704 95.5667 203.95 95.36 203.144 95.36C202.338 95.36 201.594 95.5563 200.912 95.949C200.23 96.3417 199.672 96.9203 199.238 97.685C198.824 98.429 198.618 99.3177 198.618 100.351C198.618 101.384 198.824 102.294 199.238 103.079C199.672 103.844 200.23 104.433 200.912 104.846C201.614 105.259 202.358 105.466 203.144 105.466C203.95 105.466 204.704 105.27 205.407 104.877C206.109 104.464 206.667 103.885 207.081 103.141C207.494 102.376 207.701 101.467 207.701 100.413Z" fill="#414549"/>
<path d="M232.524 91.826V109H228.153V106.83C227.595 107.574 226.861 108.163 225.952 108.597C225.063 109.01 224.092 109.217 223.038 109.217C221.694 109.217 220.506 108.938 219.473 108.38C218.439 107.801 217.623 106.964 217.024 105.869C216.445 104.753 216.156 103.43 216.156 101.901V91.826H220.496V101.281C220.496 102.645 220.837 103.699 221.519 104.443C222.201 105.166 223.131 105.528 224.309 105.528C225.507 105.528 226.448 105.166 227.13 104.443C227.812 103.699 228.153 102.645 228.153 101.281V91.826H232.524Z" fill="#414549"/>
<path d="M235.69 100.413C235.69 98.6357 236.051 97.0857 236.775 95.763C237.498 94.4197 238.5 93.3863 239.782 92.663C241.063 91.919 242.53 91.547 244.184 91.547C246.312 91.547 248.069 92.0843 249.454 93.159C250.859 94.213 251.799 95.701 252.275 97.623H247.594C247.346 96.879 246.922 96.3003 246.323 95.887C245.744 95.453 245.021 95.236 244.153 95.236C242.913 95.236 241.931 95.6907 241.208 96.6C240.484 97.4887 240.123 98.7597 240.123 100.413C240.123 102.046 240.484 103.317 241.208 104.226C241.931 105.115 242.913 105.559 244.153 105.559C245.909 105.559 247.056 104.774 247.594 103.203H252.275C251.799 105.063 250.859 106.541 249.454 107.636C248.048 108.731 246.292 109.279 244.184 109.279C242.53 109.279 241.063 108.917 239.782 108.194C238.5 107.45 237.498 106.417 236.775 105.094C236.051 103.751 235.69 102.19 235.69 100.413Z" fill="#414549"/>
<path d="M260.507 95.391V103.699C260.507 104.278 260.641 104.701 260.91 104.97C261.199 105.218 261.675 105.342 262.336 105.342H264.351V109H261.623C257.965 109 256.136 107.223 256.136 103.668V95.391H254.09V91.826H256.136V87.579H260.507V91.826H264.351V95.391H260.507Z" fill="#414549"/>
<path d="M282.485 109.279C280.832 109.279 279.344 108.917 278.021 108.194C276.699 107.45 275.655 106.406 274.89 105.063C274.146 103.72 273.774 102.17 273.774 100.413C273.774 98.6563 274.157 97.1063 274.921 95.763C275.707 94.4197 276.771 93.3863 278.114 92.663C279.458 91.919 280.956 91.547 282.609 91.547C284.263 91.547 285.761 91.919 287.104 92.663C288.448 93.3863 289.502 94.4197 290.266 95.763C291.052 97.1063 291.444 98.6563 291.444 100.413C291.444 102.17 291.041 103.72 290.235 105.063C289.45 106.406 288.375 107.45 287.011 108.194C285.668 108.917 284.159 109.279 282.485 109.279ZM282.485 105.497C283.271 105.497 284.004 105.311 284.686 104.939C285.389 104.546 285.947 103.968 286.36 103.203C286.774 102.438 286.98 101.508 286.98 100.413C286.98 98.7803 286.546 97.53 285.678 96.662C284.831 95.7733 283.787 95.329 282.547 95.329C281.307 95.329 280.264 95.7733 279.416 96.662C278.59 97.53 278.176 98.7803 278.176 100.413C278.176 102.046 278.579 103.306 279.385 104.195C280.212 105.063 281.245 105.497 282.485 105.497Z" fill="#414549"/>
<path d="M302.502 95.391H299.495V109H295.093V95.391H293.14V91.826H295.093V90.958C295.093 88.85 295.692 87.3 296.891 86.308C298.09 85.316 299.898 84.851 302.316 84.913V88.571C301.262 88.5503 300.528 88.726 300.115 89.098C299.702 89.47 299.495 90.1417 299.495 91.113V91.826H302.502V95.391Z" fill="#414549"/>
<path d="M317.785 91.485V95.887H324.884V99.979H317.785V104.753H325.814V109H312.484V87.238H325.814V91.485H317.785Z" fill="#414549"/>
<path d="M338.897 104.505V109H336.2C334.278 109 332.779 108.535 331.705 107.605C330.63 106.654 330.093 105.115 330.093 102.986V96.104H327.985V91.702H330.093V87.486H335.394V91.702H338.866V96.104H335.394V103.048C335.394 103.565 335.518 103.937 335.766 104.164C336.014 104.391 336.427 104.505 337.006 104.505H338.897Z" fill="#414549"/>
<path d="M352.482 91.516C354.466 91.516 356.058 92.1773 357.256 93.5C358.455 94.802 359.054 96.6 359.054 98.894V109H353.784V99.607C353.784 98.4497 353.485 97.5507 352.885 96.91C352.286 96.2693 351.48 95.949 350.467 95.949C349.455 95.949 348.649 96.2693 348.049 96.91C347.45 97.5507 347.15 98.4497 347.15 99.607V109H341.849V86.06H347.15V94.027C347.688 93.2623 348.421 92.6527 349.351 92.198C350.281 91.7433 351.325 91.516 352.482 91.516Z" fill="#414549"/>
<path d="M379.044 100.072C379.044 100.568 379.013 101.085 378.951 101.622H366.954C367.037 102.697 367.378 103.523 367.977 104.102C368.597 104.66 369.351 104.939 370.24 104.939C371.563 104.939 372.482 104.381 372.999 103.265H378.641C378.352 104.402 377.825 105.425 377.06 106.334C376.316 107.243 375.376 107.956 374.239 108.473C373.102 108.99 371.831 109.248 370.426 109.248C368.731 109.248 367.223 108.886 365.9 108.163C364.577 107.44 363.544 106.406 362.8 105.063C362.056 103.72 361.684 102.149 361.684 100.351C361.684 98.553 362.046 96.9823 362.769 95.639C363.513 94.2957 364.546 93.2623 365.869 92.539C367.192 91.8157 368.711 91.454 370.426 91.454C372.1 91.454 373.588 91.8053 374.89 92.508C376.192 93.2107 377.205 94.213 377.928 95.515C378.672 96.817 379.044 98.336 379.044 100.072ZM373.619 98.677C373.619 97.7677 373.309 97.0443 372.689 96.507C372.069 95.9697 371.294 95.701 370.364 95.701C369.475 95.701 368.721 95.9593 368.101 96.476C367.502 96.9927 367.13 97.7263 366.985 98.677H373.619Z" fill="#414549"/>
<path d="M387.142 94.585C387.762 93.6343 388.537 92.8903 389.467 92.353C390.397 91.795 391.43 91.516 392.567 91.516V97.127H391.11C389.787 97.127 388.795 97.4163 388.134 97.995C387.472 98.553 387.142 99.545 387.142 100.971V109H381.841V91.702H387.142V94.585Z" fill="#414549"/>
<path d="M402.137 109.248C400.629 109.248 399.285 108.99 398.107 108.473C396.929 107.956 395.999 107.254 395.317 106.365C394.635 105.456 394.253 104.443 394.17 103.327H399.409C399.471 103.926 399.75 104.412 400.246 104.784C400.742 105.156 401.352 105.342 402.075 105.342C402.737 105.342 403.243 105.218 403.594 104.97C403.966 104.701 404.152 104.36 404.152 103.947C404.152 103.451 403.894 103.089 403.377 102.862C402.861 102.614 402.024 102.345 400.866 102.056C399.626 101.767 398.593 101.467 397.766 101.157C396.94 100.826 396.227 100.32 395.627 99.638C395.028 98.9353 394.728 97.995 394.728 96.817C394.728 95.825 394.997 94.926 395.534 94.12C396.092 93.2933 396.898 92.6423 397.952 92.167C399.027 91.6917 400.298 91.454 401.765 91.454C403.935 91.454 405.64 91.9913 406.88 93.066C408.141 94.1407 408.864 95.5667 409.05 97.344H404.152C404.07 96.7447 403.801 96.2693 403.346 95.918C402.912 95.5667 402.334 95.391 401.61 95.391C400.99 95.391 400.515 95.515 400.184 95.763C399.854 95.9903 399.688 96.3107 399.688 96.724C399.688 97.22 399.947 97.592 400.463 97.84C401.001 98.088 401.827 98.336 402.943 98.584C404.225 98.9147 405.268 99.2453 406.074 99.576C406.88 99.886 407.583 100.403 408.182 101.126C408.802 101.829 409.123 102.779 409.143 103.978C409.143 104.991 408.854 105.9 408.275 106.706C407.717 107.491 406.901 108.111 405.826 108.566C404.772 109.021 403.543 109.248 402.137 109.248Z" fill="#414549"/>
<path d="M411.333 100.351C411.333 98.553 411.694 96.9823 412.418 95.639C413.162 94.2957 414.185 93.2623 415.487 92.539C416.809 91.8157 418.318 91.454 420.013 91.454C422.183 91.454 423.991 92.0223 425.438 93.159C426.905 94.2957 427.866 95.8973 428.321 97.964H422.679C422.203 96.6413 421.284 95.98 419.92 95.98C418.948 95.98 418.173 96.3623 417.595 97.127C417.016 97.871 416.727 98.9457 416.727 100.351C416.727 101.756 417.016 102.841 417.595 103.606C418.173 104.35 418.948 104.722 419.92 104.722C421.284 104.722 422.203 104.061 422.679 102.738H428.321C427.866 104.763 426.905 106.355 425.438 107.512C423.97 108.669 422.162 109.248 420.013 109.248C418.318 109.248 416.809 108.886 415.487 108.163C414.185 107.44 413.162 106.406 412.418 105.063C411.694 103.72 411.333 102.149 411.333 100.351Z" fill="#414549"/>
<path d="M430.102 100.32C430.102 98.5427 430.433 96.9823 431.094 95.639C431.776 94.2957 432.696 93.2623 433.853 92.539C435.01 91.8157 436.302 91.454 437.728 91.454C438.947 91.454 440.012 91.702 440.921 92.198C441.851 92.694 442.564 93.345 443.06 94.151V91.702H448.361V109H443.06V106.551C442.543 107.357 441.82 108.008 440.89 108.504C439.981 109 438.916 109.248 437.697 109.248C436.292 109.248 435.01 108.886 433.853 108.163C432.696 107.419 431.776 106.375 431.094 105.032C430.433 103.668 430.102 102.097 430.102 100.32ZM443.06 100.351C443.06 99.0283 442.688 97.9847 441.944 97.22C441.221 96.4553 440.332 96.073 439.278 96.073C438.224 96.073 437.325 96.4553 436.581 97.22C435.858 97.964 435.496 98.9973 435.496 100.32C435.496 101.643 435.858 102.697 436.581 103.482C437.325 104.247 438.224 104.629 439.278 104.629C440.332 104.629 441.221 104.247 441.944 103.482C442.688 102.717 443.06 101.674 443.06 100.351Z" fill="#414549"/>
<path d="M462.736 91.516C464.761 91.516 466.373 92.1773 467.572 93.5C468.791 94.802 469.401 96.6 469.401 98.894V109H464.131V99.607C464.131 98.4497 463.831 97.5507 463.232 96.91C462.633 96.2693 461.827 95.949 460.814 95.949C459.801 95.949 458.995 96.2693 458.396 96.91C457.797 97.5507 457.497 98.4497 457.497 99.607V109H452.196V91.702H457.497V93.996C458.034 93.2313 458.758 92.632 459.667 92.198C460.576 91.7433 461.599 91.516 462.736 91.516Z" fill="#414549"/>
<path d="M175.34 39.792C178.329 40.3493 180.787 41.844 182.712 44.276C184.637 46.708 185.6 49.4947 185.6 52.636C185.6 55.4733 184.891 57.9813 183.472 60.16C182.104 62.288 180.103 63.96 177.468 65.176C174.833 66.392 171.717 67 168.12 67H145.244V13.952H167.132C170.729 13.952 173.82 14.5347 176.404 15.7C179.039 16.8653 181.015 18.4867 182.332 20.564C183.7 22.6413 184.384 24.9973 184.384 27.632C184.384 30.7227 183.548 33.3067 181.876 35.384C180.255 37.4613 178.076 38.9307 175.34 39.792ZM155.884 35.84H165.612C168.145 35.84 170.096 35.2827 171.464 34.168C172.832 33.0027 173.516 31.356 173.516 29.228C173.516 27.1 172.832 25.4533 171.464 24.288C170.096 23.1227 168.145 22.54 165.612 22.54H155.884V35.84ZM166.6 58.336C169.184 58.336 171.185 57.728 172.604 56.512C174.073 55.296 174.808 53.5733 174.808 51.344C174.808 49.064 174.048 47.2907 172.528 46.024C171.008 44.7067 168.956 44.048 166.372 44.048H155.884V58.336H166.6Z" fill="black"/>
<path d="M210.192 67.684C206.747 67.684 203.656 67.076 200.92 65.86C198.184 64.5933 196.005 62.896 194.384 60.768C192.813 58.64 191.952 56.284 191.8 53.7H202.516C202.719 55.3213 203.504 56.664 204.872 57.728C206.291 58.792 208.039 59.324 210.116 59.324C212.143 59.324 213.713 58.9187 214.828 58.108C215.993 57.2973 216.576 56.2587 216.576 54.992C216.576 53.624 215.867 52.6107 214.448 51.952C213.08 51.2427 210.876 50.4827 207.836 49.672C204.695 48.912 202.111 48.1267 200.084 47.316C198.108 46.5053 196.385 45.264 194.916 43.592C193.497 41.92 192.788 39.6653 192.788 36.828C192.788 34.4973 193.447 32.3693 194.764 30.444C196.132 28.5186 198.057 26.9986 200.54 25.884C203.073 24.7693 206.037 24.212 209.432 24.212C214.448 24.212 218.451 25.4787 221.44 28.012C224.429 30.4947 226.076 33.864 226.38 38.12H216.196C216.044 36.448 215.335 35.1307 214.068 34.168C212.852 33.1547 211.205 32.648 209.128 32.648C207.203 32.648 205.708 33.0027 204.644 33.712C203.631 34.4213 203.124 35.4093 203.124 36.676C203.124 38.0947 203.833 39.184 205.252 39.944C206.671 40.6533 208.875 41.388 211.864 42.148C214.904 42.908 217.412 43.6933 219.388 44.504C221.364 45.3147 223.061 46.5813 224.48 48.304C225.949 49.976 226.709 52.2053 226.76 54.992C226.76 57.424 226.076 59.6027 224.708 61.528C223.391 63.4533 221.465 64.9733 218.932 66.088C216.449 67.152 213.536 67.684 210.192 67.684Z" fill="black"/>
<path d="M232.758 45.948C232.758 41.5907 233.645 37.7907 235.418 34.548C237.191 31.2547 239.649 28.7213 242.79 26.948C245.931 25.124 249.529 24.212 253.582 24.212C258.801 24.212 263.107 25.5293 266.502 28.164C269.947 30.748 272.253 34.396 273.418 39.108H261.942C261.334 37.284 260.295 35.8653 258.826 34.852C257.407 33.788 255.634 33.256 253.506 33.256C250.466 33.256 248.059 34.3707 246.286 36.6C244.513 38.7787 243.626 41.8947 243.626 45.948C243.626 49.9507 244.513 53.0667 246.286 55.296C248.059 57.4747 250.466 58.564 253.506 58.564C257.813 58.564 260.625 56.6387 261.942 52.788H273.418C272.253 57.348 269.947 60.9707 266.502 63.656C263.057 66.3413 258.75 67.684 253.582 67.684C249.529 67.684 245.931 66.7973 242.79 65.024C239.649 63.2 237.191 60.6667 235.418 57.424C233.645 54.1307 232.758 50.3053 232.758 45.948Z" fill="black"/>
<path d="M299.529 67.532C295.83 67.532 292.486 66.8987 289.497 65.632C286.558 64.3653 284.228 62.5413 282.505 60.16C280.782 57.7787 279.896 54.9667 279.845 51.724H291.245C291.397 53.9027 292.157 55.6253 293.525 56.892C294.944 58.1587 296.869 58.792 299.301 58.792C301.784 58.792 303.734 58.2093 305.153 57.044C306.572 55.828 307.281 54.2573 307.281 52.332C307.281 50.7613 306.8 49.4693 305.837 48.456C304.874 47.4427 303.658 46.6573 302.189 46.1C300.77 45.492 298.794 44.8333 296.261 44.124C292.816 43.1107 290.004 42.1227 287.825 41.16C285.697 40.1467 283.848 38.652 282.277 36.676C280.757 34.6493 279.997 31.964 279.997 28.62C279.997 25.4787 280.782 22.7427 282.353 20.412C283.924 18.0813 286.128 16.308 288.965 15.092C291.802 13.8253 295.045 13.192 298.693 13.192C304.165 13.192 308.598 14.5347 311.993 17.22C315.438 19.8547 317.338 23.5533 317.693 28.316H305.989C305.888 26.492 305.102 24.9973 303.633 23.832C302.214 22.616 300.314 22.008 297.933 22.008C295.856 22.008 294.184 22.54 292.917 23.604C291.701 24.668 291.093 26.2133 291.093 28.24C291.093 29.6587 291.549 30.8493 292.461 31.812C293.424 32.724 294.589 33.484 295.957 34.092C297.376 34.6493 299.352 35.308 301.885 36.068C305.33 37.0813 308.142 38.0947 310.321 39.108C312.5 40.1213 314.374 41.6413 315.945 43.668C317.516 45.6947 318.301 48.3547 318.301 51.648C318.301 54.4853 317.566 57.12 316.097 59.552C314.628 61.984 312.474 63.9347 309.637 65.404C306.8 66.8227 303.43 67.532 299.529 67.532Z" fill="black"/>
<path d="M324.789 45.948C324.789 41.5907 325.676 37.7907 327.449 34.548C329.223 31.2547 331.68 28.7213 334.821 26.948C337.963 25.124 341.56 24.212 345.613 24.212C350.832 24.212 355.139 25.5293 358.533 28.164C361.979 30.748 364.284 34.396 365.449 39.108H353.973C353.365 37.284 352.327 35.8653 350.857 34.852C349.439 33.788 347.665 33.256 345.537 33.256C342.497 33.256 340.091 34.3707 338.317 36.6C336.544 38.7787 335.657 41.8947 335.657 45.948C335.657 49.9507 336.544 53.0667 338.317 55.296C340.091 57.4747 342.497 58.564 345.537 58.564C349.844 58.564 352.656 56.6387 353.973 52.788H365.449C364.284 57.348 361.979 60.9707 358.533 63.656C355.088 66.3413 350.781 67.684 345.613 67.684C341.56 67.684 337.963 66.7973 334.821 65.024C331.68 63.2 329.223 60.6667 327.449 57.424C325.676 54.1307 324.789 50.3053 324.789 45.948Z" fill="black"/>
<path d="M370.508 45.796C370.508 41.54 371.344 37.7653 373.016 34.472C374.739 31.1787 377.044 28.6453 379.932 26.872C382.871 25.0987 386.139 24.212 389.736 24.212C392.877 24.212 395.613 24.8453 397.944 26.112C400.325 27.3787 402.225 28.9747 403.644 30.9V24.896H414.36V67H403.644V60.844C402.276 62.82 400.376 64.4667 397.944 65.784C395.563 67.0507 392.801 67.684 389.66 67.684C386.113 67.684 382.871 66.772 379.932 64.948C377.044 63.124 374.739 60.5653 373.016 57.272C371.344 53.928 370.508 50.1027 370.508 45.796ZM403.644 45.948C403.644 43.364 403.137 41.16 402.124 39.336C401.111 37.4613 399.743 36.0427 398.02 35.08C396.297 34.0667 394.448 33.56 392.472 33.56C390.496 33.56 388.672 34.0413 387 35.004C385.328 35.9667 383.96 37.3853 382.896 39.26C381.883 41.084 381.376 43.2627 381.376 45.796C381.376 48.3293 381.883 50.5587 382.896 52.484C383.96 54.3587 385.328 55.8027 387 56.816C388.723 57.8293 390.547 58.336 392.472 58.336C394.448 58.336 396.297 57.8547 398.02 56.892C399.743 55.8787 401.111 54.46 402.124 52.636C403.137 50.7613 403.644 48.532 403.644 45.948Z" fill="black"/>
<path d="M448.084 24.288C453.1 24.288 457.153 25.884 460.244 29.076C463.335 32.2173 464.88 36.6253 464.88 42.3V67H454.24V43.744C454.24 40.4 453.404 37.8413 451.732 36.068C450.06 34.244 447.78 33.332 444.892 33.332C441.953 33.332 439.623 34.244 437.9 36.068C436.228 37.8413 435.392 40.4 435.392 43.744V67H424.752V24.896H435.392V30.14C436.811 28.316 438.609 26.8973 440.788 25.884C443.017 24.82 445.449 24.288 448.084 24.288Z" fill="black"/>
<path d="M25.2228 57.583C25.2229 56.9056 25.3568 56.2348 25.6169 55.6093C25.877 54.9837 26.258 54.4157 26.7382 53.9378C27.2184 53.4599 27.7883 53.0816 28.4151 52.8246C29.0419 52.5676 29.7133 52.4369 30.3908 52.44L38.9588 52.468C40.3249 52.468 41.6351 53.0107 42.6011 53.9767C43.5671 54.9427 44.1098 56.2529 44.1098 57.619V90.0191C45.0748 89.7331 46.3098 89.428 47.6688 89.108C48.6103 88.8865 49.4494 88.3535 50.05 87.5953C50.6506 86.8371 50.9776 85.8983 50.9778 84.931V44.744C50.9778 43.3778 51.5204 42.0675 52.4864 41.1014C53.4524 40.1352 54.7626 39.5923 56.1288 39.592H64.7228C66.089 39.5923 67.3992 40.1352 68.3651 41.1014C69.3311 42.0675 69.8738 43.3778 69.8738 44.744V82.044C69.8738 82.044 72.0238 81.174 74.1168 80.29C74.8945 79.9611 75.5582 79.4104 76.025 78.7067C76.4918 78.003 76.7411 77.1775 76.7418 76.333V31.866C76.7418 30.5001 77.2843 29.1901 78.2501 28.2241C79.2159 27.2581 80.5258 26.7153 81.8918 26.715H90.4768C91.842 26.7164 93.1509 27.2596 94.1158 28.2255C95.0808 29.1914 95.6228 30.5008 95.6228 31.866V68.483C103.066 63.089 110.609 56.601 116.595 48.8C117.463 47.6677 118.038 46.338 118.268 44.9295C118.497 43.521 118.375 42.0776 117.911 40.728C115.14 32.7562 110.735 25.4505 104.979 19.2786C99.2225 13.1067 92.241 8.20438 84.4813 4.88543C76.7216 1.56649 68.3544 -0.0960273 59.9153 0.00428347C51.4762 0.104594 43.1509 1.96552 35.4723 5.46797C27.7936 8.97042 20.9307 14.0373 15.3226 20.3443C9.71457 26.6513 5.48488 34.0596 2.90423 42.0951C0.323578 50.1305 -0.551199 58.6163 0.33587 67.0093C1.22294 75.4022 3.85232 83.5176 8.05576 90.836C8.7881 92.0985 9.86553 93.1258 11.1615 93.7972C12.4574 94.4685 13.918 94.7561 15.3718 94.626C16.9958 94.483 19.0178 94.281 21.4218 93.999C22.468 93.88 23.434 93.3803 24.1356 92.5951C24.8373 91.8099 25.2257 90.7941 25.2268 89.741V57.583" fill="#12161C"/>
<path d="M25.0391 109.544C34.0883 116.127 44.7823 120.079 55.9379 120.961C67.0934 121.844 78.2758 119.623 88.2476 114.545C98.2195 109.467 106.592 101.729 112.439 92.1878C118.286 82.6465 121.38 71.6735 121.378 60.4831C121.378 59.0831 121.313 57.7051 121.22 56.3311C99.057 89.3861 58.1351 104.839 25.0391 109.544Z" fill="#F0B90B"/>
</svg>
