<svg xmlns="http://www.w3.org/2000/svg" width="494.84" height="122" viewBox="0 0 494.84 122">
  <g id="optimism-logo" transform="translate(-219 -213)">
    <g id="text">
      <path id="Path_238" data-name="Path 238" d="M31.392-51.552a24.591,24.591,0,0,1,11.844,2.7,18.735,18.735,0,0,1,7.7,7.632,23.386,23.386,0,0,1,2.7,11.412,35.2,35.2,0,0,1-.576,5.976A30.3,30.3,0,0,1,47.916-11.2a27.56,27.56,0,0,1-9.9,8.6A28.211,28.211,0,0,1,24.84.5,24.965,24.965,0,0,1,12.888-2.2a18.512,18.512,0,0,1-7.7-7.6A23.432,23.432,0,0,1,2.52-21.168a35.9,35.9,0,0,1,.576-6.12A30.3,30.3,0,0,1,8.244-39.924a27.152,27.152,0,0,1,9.936-8.568A28.7,28.7,0,0,1,31.392-51.552Zm-.792,9.36A16.344,16.344,0,0,0,19.224-37.8a20.434,20.434,0,0,0-6.192,11.808,27.616,27.616,0,0,0-.36,4.032q0,6.048,3.456,9.54t9.5,3.492a16.572,16.572,0,0,0,7.992-1.98,17.592,17.592,0,0,0,6.192-5.652,20.79,20.79,0,0,0,3.312-8.568,21.058,21.058,0,0,0,.36-4.1q0-6.048-3.456-9.5T30.6-42.192Zm57.672,1.8q6.624,0,10.548,4.1t3.924,11.376a30.237,30.237,0,0,1-.432,4.968A28.823,28.823,0,0,1,98.064-9.036,21.477,21.477,0,0,1,90.5-1.944,19.468,19.468,0,0,1,81,.5a13.024,13.024,0,0,1-8.172-2.412A10.372,10.372,0,0,1,68.9-8.352L64.08,19.008H53.928L64.3-39.888H74.448l-1.512,8.28A16.728,16.728,0,0,1,79.2-38.016,17.531,17.531,0,0,1,88.272-40.392ZM79.416-8.424a11.877,11.877,0,0,0,8.136-3.06,14.422,14.422,0,0,0,4.464-8.46,19.513,19.513,0,0,0,.216-2.736,8.783,8.783,0,0,0-2.34-6.552,8.787,8.787,0,0,0-6.444-2.3A11.891,11.891,0,0,0,75.312-28.4a14.187,14.187,0,0,0-4.464,8.46,16.648,16.648,0,0,0-.216,2.592A8.779,8.779,0,0,0,73.044-10.8,8.687,8.687,0,0,0,79.416-8.424ZM119.88-13.9a8.282,8.282,0,0,0-.144,1.728,3.177,3.177,0,0,0,1.008,2.7,5.616,5.616,0,0,0,3.312.756h3.96L126.432,0H121.1q-5.688,0-8.712-2.3t-3.024-7.56a22.044,22.044,0,0,1,.432-4.176l3.024-17.28H107.28l1.512-8.568h5.544l1.728-9.864h10.224l-1.728,9.864h8.784l-1.512,8.568h-8.856Zm22.464-36.432a6.025,6.025,0,0,1,2.088-4.68,7.579,7.579,0,0,1,5.256-1.872,5.558,5.558,0,0,1,3.852,1.26,4.2,4.2,0,0,1,1.4,3.276,5.962,5.962,0,0,1-2.052,4.644,7.534,7.534,0,0,1-5.22,1.836,5.778,5.778,0,0,1-3.924-1.224A4.087,4.087,0,0,1,142.344-50.328Zm9.36,10.44L144.648,0H134.5l7.056-39.888Zm60.048-.576q6.192,0,9.612,3.348t3.42,9.612a24.581,24.581,0,0,1-.36,4.32L220.32,0H210.168l3.96-22.032a14.921,14.921,0,0,0,.216-2.448,6.931,6.931,0,0,0-1.944-5.292,7.552,7.552,0,0,0-5.4-1.836,10.483,10.483,0,0,0-7.164,2.556,12.778,12.778,0,0,0-3.852,7.524L192.168,0H182.016l3.96-22.032a14.923,14.923,0,0,0,.216-2.448,6.931,6.931,0,0,0-1.944-5.292,7.552,7.552,0,0,0-5.4-1.836,10.492,10.492,0,0,0-7.236,2.664,12.905,12.905,0,0,0-3.852,7.776v-.36L164.016,0H153.792l7.056-39.888H171L169.7-32.4a15.871,15.871,0,0,1,6.012-5.94,16.685,16.685,0,0,1,8.316-2.124,13.236,13.236,0,0,1,7.992,2.3,10.914,10.914,0,0,1,4.176,6.624,19.332,19.332,0,0,1,6.768-6.516A17.3,17.3,0,0,1,211.752-40.464Zm25.272-9.864a6.025,6.025,0,0,1,2.088-4.68,7.579,7.579,0,0,1,5.256-1.872,5.558,5.558,0,0,1,3.852,1.26,4.2,4.2,0,0,1,1.4,3.276,5.962,5.962,0,0,1-2.052,4.644,7.534,7.534,0,0,1-5.22,1.836,5.778,5.778,0,0,1-3.924-1.224A4.087,4.087,0,0,1,237.024-50.328Zm9.36,10.44L239.328,0H229.176l7.056-39.888Zm21.1-.5q8.064,0,12.276,3.636a13.412,13.412,0,0,1,4.572,9.828h-9.936a5.942,5.942,0,0,0-2.088-4.644,8.6,8.6,0,0,0-5.688-1.692,7.383,7.383,0,0,0-4.428,1.224,3.878,3.878,0,0,0-1.692,3.312,3.418,3.418,0,0,0,2.052,3.168,32.659,32.659,0,0,0,6.372,2.232,63.852,63.852,0,0,1,6.8,2.34,12.5,12.5,0,0,1,4.536,3.276,8.276,8.276,0,0,1,1.908,5.688,13.249,13.249,0,0,1-.288,2.736A10.789,10.789,0,0,1,276.912-2.2Q272.808.5,265.968.5,258.12.5,253.4-3.06a12.08,12.08,0,0,1-4.86-9.9h9.936a4.989,4.989,0,0,0,2.052,4.608,10.184,10.184,0,0,0,6.3,1.728,6.571,6.571,0,0,0,4.392-1.3,4.167,4.167,0,0,0,1.512-3.312,3.446,3.446,0,0,0-1.116-2.628,8.117,8.117,0,0,0-2.772-1.656q-1.656-.612-4.752-1.476a60.8,60.8,0,0,1-6.624-2.2,11.387,11.387,0,0,1-4.32-3.132,8.085,8.085,0,0,1-1.8-5.472,16.648,16.648,0,0,1,.216-2.592A10.766,10.766,0,0,1,256.5-37.62Q260.64-40.392,267.48-40.392Zm77.328-.072q6.192,0,9.612,3.348t3.42,9.612a24.581,24.581,0,0,1-.36,4.32L353.376,0H343.224l3.96-22.032a14.919,14.919,0,0,0,.216-2.448,6.931,6.931,0,0,0-1.944-5.292,7.552,7.552,0,0,0-5.4-1.836,10.483,10.483,0,0,0-7.164,2.556,12.778,12.778,0,0,0-3.852,7.524L325.224,0H315.072l3.96-22.032a14.919,14.919,0,0,0,.216-2.448,6.931,6.931,0,0,0-1.944-5.292,7.552,7.552,0,0,0-5.4-1.836,10.492,10.492,0,0,0-7.236,2.664,12.905,12.905,0,0,0-3.852,7.776v-.36L297.072,0H286.848L293.9-39.888h10.152l-1.3,7.488a15.871,15.871,0,0,1,6.012-5.94,16.685,16.685,0,0,1,8.316-2.124,13.236,13.236,0,0,1,7.992,2.3,10.914,10.914,0,0,1,4.176,6.624,19.332,19.332,0,0,1,6.768-6.516A17.3,17.3,0,0,1,344.808-40.464Z" transform="translate(356 300)"/>
    </g>
    <g id="optimism-logo-circle" transform="translate(219 213)">
      <circle id="Ellipse_11" data-name="Ellipse 11" cx="61" cy="61" r="61" fill="#ff0420"/>
      <path id="Path_139" data-name="Path 139" d="M113.533,178.026a14.656,14.656,0,0,1-8.924-2.563,8.762,8.762,0,0,1-3.432-7.413,16.433,16.433,0,0,1,.229-2.471q.595-3.3,1.693-7.917,3.112-12.585,16.062-12.585a15.966,15.966,0,0,1,6.315,1.19,9.6,9.6,0,0,1,4.393,3.478,9.333,9.333,0,0,1,1.6,5.492,16.288,16.288,0,0,1-.229,2.425q-.687,4.073-1.647,7.917-1.6,6.269-5.537,9.381Q120.123,178.026,113.533,178.026Zm.641-6.59a6.5,6.5,0,0,0,4.348-1.51,8.424,8.424,0,0,0,2.608-4.622q1.053-4.3,1.6-7.505a10.5,10.5,0,0,0,.183-1.968q0-4.165-4.347-4.164a6.681,6.681,0,0,0-4.393,1.51,8.573,8.573,0,0,0-2.563,4.622q-.824,3.066-1.647,7.505a9.791,9.791,0,0,0-.183,1.922Q109.78,171.436,114.174,171.436Z" transform="translate(-70.332 -100.849)" fill="#fff"/>
      <path id="Path_140" data-name="Path 140" d="M205.3,178.612a.97.97,0,0,1-.778-.32,1.1,1.1,0,0,1-.137-.824l6.315-29.746a1.31,1.31,0,0,1,.5-.824,1.4,1.4,0,0,1,.87-.32h12.173a14.148,14.148,0,0,1,8.146,2.105,6.9,6.9,0,0,1,3.112,6.087,10.955,10.955,0,0,1-.275,2.38,12.39,12.39,0,0,1-4.622,7.78q-3.432,2.517-9.427,2.517H215l-2.105,10.022a1.311,1.311,0,0,1-.5.824,1.4,1.4,0,0,1-.869.32Zm16.2-17.482a5.451,5.451,0,0,0,3.341-1.052,4.942,4.942,0,0,0,1.922-3.02,8.022,8.022,0,0,0,.137-1.373,2.543,2.543,0,0,0-.778-2.014,3.836,3.836,0,0,0-2.654-.732h-5.491l-1.739,8.191Z" transform="translate(-142.055 -101.892)" fill="#fff"/>
    </g>
  </g>
</svg>